<svg width="40" height="40" viewBox="0 0 40 40" fill="none" xmlns="http://www.w3.org/2000/svg">
<g id="Frame 5">
<g id="User Interface / Like">
<path id="Vector" d="M29.1969 17.5C28.9042 17.1486 28.538 16.8657 28.124 16.6713C27.71 16.4769 27.2584 16.3757 26.8011 16.375H22.0511L22.6344 14.8854C22.8771 14.2332 22.9579 13.5318 22.8699 12.8415C22.782 12.1513 22.5279 11.4926 22.1294 10.9221C21.731 10.3516 21.2001 9.88621 20.5823 9.56595C19.9645 9.24568 19.2782 9.08007 18.5824 9.0833C18.382 9.08372 18.186 9.14192 18.0178 9.25093C17.8497 9.35993 17.7166 9.51512 17.6344 9.69788L14.6657 16.375H12.2178C11.389 16.375 10.5941 16.7042 10.0081 17.2903C9.42201 17.8763 9.09277 18.6712 9.09277 19.5V26.7916C9.09277 27.6204 9.42201 28.4153 10.0081 29.0013C10.5941 29.5874 11.389 29.9166 12.2178 29.9166H25.4782C26.2092 29.9164 26.9171 29.6599 27.4785 29.1917C28.04 28.7235 28.4195 28.0732 28.5511 27.3541L29.874 20.0625C29.9558 19.6118 29.9376 19.1487 29.8206 18.7059C29.7036 18.2631 29.4907 17.8514 29.1969 17.5ZM14.3011 27.8333H12.2178C11.9415 27.8333 11.6766 27.7236 11.4812 27.5282C11.2859 27.3329 11.1761 27.0679 11.1761 26.7916V19.5C11.1761 19.2237 11.2859 18.9587 11.4812 18.7634C11.6766 18.568 11.9415 18.4583 12.2178 18.4583H14.3011V27.8333ZM27.8428 19.6875L26.5199 26.9791C26.4755 27.2218 26.3464 27.4408 26.1557 27.5973C25.9649 27.7537 25.7248 27.8373 25.4782 27.8333H16.3844V17.6354L19.2178 11.2604C19.5094 11.3454 19.7803 11.49 20.0133 11.6849C20.2462 11.8799 20.4362 12.1211 20.5713 12.3932C20.7064 12.6653 20.7836 12.9625 20.798 13.2659C20.8125 13.5694 20.7639 13.8725 20.6553 14.1562L20.1032 15.6458C19.9856 15.9606 19.9458 16.2993 19.9874 16.6328C20.029 16.9663 20.1507 17.2848 20.3421 17.5612C20.5335 17.8375 20.7888 18.0634 21.0864 18.2196C21.384 18.3758 21.715 18.4577 22.0511 18.4583H26.8011C26.9541 18.4581 27.1053 18.4915 27.244 18.5563C27.3826 18.6212 27.5053 18.7157 27.6032 18.8333C27.7035 18.9493 27.777 19.0859 27.8185 19.2336C27.8599 19.3813 27.8682 19.5362 27.8428 19.6875Z" fill="#ED7232"/>
</g>
<rect x="1" y="1" width="38" height="38" rx="19" stroke="#ED7232" stroke-width="2"/>
</g>
</svg>
