<svg width="40" height="40" viewBox="0 0 40 40" fill="none" xmlns="http://www.w3.org/2000/svg">
<g id="Frame 5">
<g id="Business / bank">
<path id="Vector" d="M28.8844 17.9166C29.0212 17.9166 29.1567 17.8897 29.2831 17.8373C29.4095 17.785 29.5244 17.7083 29.6211 17.6115C29.7178 17.5148 29.7946 17.4 29.8469 17.2736C29.8992 17.1472 29.9261 17.0117 29.9261 16.8749V13.7499C29.9262 13.5313 29.8575 13.3183 29.7296 13.141C29.6018 12.9637 29.4214 12.8311 29.214 12.7621L19.839 9.63715C19.6251 9.56594 19.3938 9.56594 19.1798 9.63715L9.80485 12.7621C9.59745 12.8311 9.41705 12.9637 9.28924 13.141C9.16142 13.3183 9.09268 13.5313 9.09277 13.7499V16.8749C9.09274 17.0117 9.11966 17.1472 9.17199 17.2736C9.22433 17.4 9.30106 17.5148 9.39779 17.6115C9.49453 17.7083 9.60937 17.785 9.73577 17.8373C9.86217 17.8897 9.99764 17.9166 10.1344 17.9166H11.1761V25.4002C10.5685 25.6142 10.0421 26.011 9.66909 26.5362C9.29607 27.0613 9.09476 27.6891 9.09277 28.3332V30.4166C9.09274 30.5534 9.11966 30.6888 9.17199 30.8152C9.22433 30.9416 9.30106 31.0565 9.39779 31.1532C9.49453 31.2499 9.60937 31.3267 9.73577 31.379C9.86217 31.4313 9.99764 31.4583 10.1344 31.4582H28.8844C29.0212 31.4583 29.1567 31.4313 29.2831 31.379C29.4095 31.3267 29.5244 31.2499 29.6211 31.1532C29.7178 31.0565 29.7946 30.9416 29.8469 30.8152C29.8992 30.6888 29.9261 30.5534 29.9261 30.4166V28.3332C29.9241 27.6891 29.7228 27.0613 29.3498 26.5362C28.9768 26.011 28.4503 25.6142 27.8428 25.4002V17.9166H28.8844ZM27.8428 29.3749H11.1761V28.3332C11.1764 28.057 11.2862 27.7923 11.4815 27.597C11.6768 27.4017 11.9416 27.2918 12.2178 27.2916H26.8011C27.0773 27.2918 27.3421 27.4017 27.5374 27.597C27.7327 27.7923 27.8425 28.057 27.8428 28.3332V29.3749ZM13.2594 25.2082V17.9166H15.3428V25.2082H13.2594ZM17.4261 25.2082V17.9166H21.5928V25.2082H17.4261ZM23.6761 25.2082V17.9166H25.7594V25.2082H23.6761ZM11.1761 15.8332V14.5006L19.5094 11.7225L27.8428 14.5006V15.8332H11.1761Z" fill="#ED7232"/>
</g>
<rect x="1" y="1" width="38" height="38" rx="19" stroke="#ED7232" stroke-width="2"/>
</g>
</svg>
