<svg width="40" height="40" viewBox="0 0 40 40" fill="none" xmlns="http://www.w3.org/2000/svg">
<g id="Frame 5">
<g id="Users / users">
<path id="Vector" d="M20.8128 19.7291C21.3686 19.248 21.8144 18.6529 22.12 17.9843C22.4255 17.3157 22.5837 16.5892 22.5837 15.8541C22.5837 14.4727 22.0349 13.148 21.0582 12.1712C20.0814 11.1945 18.7567 10.6458 17.3753 10.6458C15.994 10.6458 14.6692 11.1945 13.6925 12.1712C12.7157 13.148 12.167 14.4727 12.167 15.8541C12.167 16.5892 12.3251 17.3157 12.6307 17.9843C12.9362 18.6529 13.382 19.248 13.9378 19.7291C12.4796 20.3894 11.2425 21.4557 10.3743 22.8005C9.50605 24.1453 9.04353 25.7117 9.04199 27.3124C9.04199 27.5887 9.15174 27.8536 9.34709 28.049C9.54244 28.2443 9.80739 28.3541 10.0837 28.3541C10.3599 28.3541 10.6249 28.2443 10.8202 28.049C11.0156 27.8536 11.1253 27.5887 11.1253 27.3124C11.1253 25.6548 11.7838 24.0651 12.9559 22.893C14.128 21.7209 15.7177 21.0624 17.3753 21.0624C19.0329 21.0624 20.6226 21.7209 21.7947 22.893C22.9668 24.0651 23.6253 25.6548 23.6253 27.3124C23.6253 27.5887 23.7351 27.8536 23.9304 28.049C24.1258 28.2443 24.3907 28.3541 24.667 28.3541C24.9433 28.3541 25.2082 28.2443 25.4036 28.049C25.5989 27.8536 25.7087 27.5887 25.7087 27.3124C25.7071 25.7117 25.2446 24.1453 24.3764 22.8005C23.5082 21.4557 22.271 20.3894 20.8128 19.7291ZM17.3753 18.9791C16.7573 18.9791 16.1531 18.7958 15.6392 18.4524C15.1253 18.109 14.7247 17.621 14.4882 17.05C14.2517 16.479 14.1898 15.8506 14.3104 15.2444C14.431 14.6382 14.7286 14.0814 15.1656 13.6444C15.6027 13.2073 16.1595 12.9097 16.7657 12.7891C17.3719 12.6686 18.0002 12.7304 18.5712 12.967C19.1422 13.2035 19.6303 13.604 19.9737 14.1179C20.317 14.6318 20.5003 15.236 20.5003 15.8541C20.5003 16.6829 20.1711 17.4777 19.585 18.0638C18.999 18.6498 18.2041 18.9791 17.3753 18.9791ZM27.5212 19.3124C28.1878 18.5617 28.6233 17.6344 28.7751 16.6419C28.927 15.6495 28.7888 14.6344 28.3772 13.7187C27.9655 12.803 27.298 12.0257 26.455 11.4806C25.6119 10.9354 24.6293 10.6455 23.6253 10.6458C23.3491 10.6458 23.0841 10.7555 22.8888 10.9508C22.6934 11.1462 22.5837 11.4112 22.5837 11.6874C22.5837 11.9637 22.6934 12.2286 22.8888 12.424C23.0841 12.6193 23.3491 12.7291 23.6253 12.7291C24.4541 12.7291 25.249 13.0583 25.835 13.6444C26.4211 14.2304 26.7503 15.0253 26.7503 15.8541C26.7489 16.4012 26.6038 16.9384 26.3296 17.4118C26.0554 17.8853 25.6617 18.2784 25.1878 18.552C25.0334 18.6411 24.9044 18.7683 24.8132 18.9215C24.722 19.0747 24.6717 19.2488 24.667 19.427C24.6626 19.6038 24.7034 19.7789 24.7854 19.9356C24.8674 20.0923 24.988 20.2256 25.1357 20.3228L25.542 20.5937L25.6774 20.6666C26.933 21.2621 27.9923 22.2041 28.7305 23.3815C29.4687 24.5589 29.8551 25.9228 29.8441 27.3124C29.8441 27.5887 29.9538 27.8536 30.1492 28.049C30.3445 28.2443 30.6095 28.3541 30.8857 28.3541C31.162 28.3541 31.427 28.2443 31.6223 28.049C31.8177 27.8536 31.9274 27.5887 31.9274 27.3124C31.9359 25.7139 31.5356 24.1398 30.7644 22.7396C29.9932 21.3394 28.8767 20.1596 27.5212 19.3124Z" fill="#ED7232"/>
</g>
<rect x="1" y="1" width="38" height="38" rx="19" stroke="#ED7232" stroke-width="2"/>
</g>
</svg>
