<svg width="40" height="40" viewBox="0 0 40 40" fill="none" xmlns="http://www.w3.org/2000/svg">
<g id="Frame 5">
<g id="Business / sitemap">
<path id="Vector" d="M30.917 22.6251H28.8337V19.5001C28.8337 19.2238 28.7239 18.9589 28.5286 18.7635C28.3332 18.5682 28.0683 18.4584 27.792 18.4584H21.542V16.3751H23.6253C23.9016 16.3751 24.1665 16.2653 24.3619 16.07C24.5572 15.8746 24.667 15.6097 24.667 15.3334V9.08341C24.667 8.80715 24.5572 8.5422 24.3619 8.34685C24.1665 8.15149 23.9016 8.04175 23.6253 8.04175H17.3753C17.0991 8.04175 16.8341 8.15149 16.6388 8.34685C16.4434 8.5422 16.3337 8.80715 16.3337 9.08341V15.3334C16.3337 15.6097 16.4434 15.8746 16.6388 16.07C16.8341 16.2653 17.0991 16.3751 17.3753 16.3751H19.4587V18.4584H13.2087C12.9324 18.4584 12.6674 18.5682 12.4721 18.7635C12.2767 18.9589 12.167 19.2238 12.167 19.5001V22.6251H10.0837C9.80739 22.6251 9.54244 22.7348 9.34709 22.9302C9.15174 23.1255 9.04199 23.3905 9.04199 23.6667V29.9167C9.04199 30.193 9.15174 30.458 9.34709 30.6533C9.54244 30.8487 9.80739 30.9584 10.0837 30.9584H16.3337C16.6099 30.9584 16.8749 30.8487 17.0702 30.6533C17.2656 30.458 17.3753 30.193 17.3753 29.9167V23.6667C17.3753 23.3905 17.2656 23.1255 17.0702 22.9302C16.8749 22.7348 16.6099 22.6251 16.3337 22.6251H14.2503V20.5417H26.7503V22.6251H24.667C24.3907 22.6251 24.1258 22.7348 23.9304 22.9302C23.7351 23.1255 23.6253 23.3905 23.6253 23.6667V29.9167C23.6253 30.193 23.7351 30.458 23.9304 30.6533C24.1258 30.8487 24.3907 30.9584 24.667 30.9584H30.917C31.1933 30.9584 31.4582 30.8487 31.6536 30.6533C31.8489 30.458 31.9587 30.193 31.9587 29.9167V23.6667C31.9587 23.3905 31.8489 23.1255 31.6536 22.9302C31.4582 22.7348 31.1933 22.6251 30.917 22.6251ZM15.292 24.7084V28.8751H11.1253V24.7084H15.292ZM18.417 14.2917V10.1251H22.5837V14.2917H18.417ZM29.8753 28.8751H25.7087V24.7084H29.8753V28.8751Z" fill="#ED7232"/>
</g>
<rect x="1" y="1" width="38" height="38" rx="19" stroke="#ED7232" stroke-width="2"/>
</g>
</svg>
