<svg width="60" height="60" viewBox="0 0 60 60" fill="none" xmlns="http://www.w3.org/2000/svg">
<g id="Frame 5">
<g id="Business / growth graph">
<path id="Vector" d="M21.6667 36.6667C22.3297 36.6667 22.9656 36.4033 23.4344 35.9345C23.9033 35.4656 24.1667 34.8298 24.1667 34.1667C24.1748 34.0836 24.1748 33.9998 24.1667 33.9167L28.8167 29.2667H29.2H29.5833L32.2667 31.95C32.2667 31.95 32.2667 32.0334 32.2667 32.0834C32.2667 32.7464 32.5301 33.3823 32.9989 33.8511C33.4677 34.32 34.1036 34.5834 34.7667 34.5834C35.4297 34.5834 36.0656 34.32 36.5344 33.8511C37.0033 33.3823 37.2667 32.7464 37.2667 32.0834V31.95L43.3333 25.8334C43.8278 25.8334 44.3111 25.6868 44.7223 25.412C45.1334 25.1373 45.4538 24.7469 45.643 24.2901C45.8322 23.8333 45.8818 23.3306 45.7853 22.8456C45.6888 22.3607 45.4507 21.9152 45.1011 21.5656C44.7515 21.216 44.306 20.9779 43.8211 20.8814C43.3361 20.7849 42.8334 20.8345 42.3766 21.0237C41.9198 21.2129 41.5294 21.5333 41.2547 21.9444C40.98 22.3556 40.8333 22.8389 40.8333 23.3334C40.8252 23.4165 40.8252 23.5002 40.8333 23.5834L34.8167 29.6H34.55L31.6667 26.6667C31.6667 26.0037 31.4033 25.3678 30.9344 24.8989C30.4656 24.4301 29.8297 24.1667 29.1667 24.1667C28.5036 24.1667 27.8677 24.4301 27.3989 24.8989C26.9301 25.3678 26.6667 26.0037 26.6667 26.6667L21.6667 31.6667C21.0036 31.6667 20.3677 31.9301 19.8989 32.3989C19.4301 32.8678 19.1667 33.5037 19.1667 34.1667C19.1667 34.8298 19.4301 35.4656 19.8989 35.9345C20.3677 36.4033 21.0036 36.6667 21.6667 36.6667ZM44.1667 43.3334H15.8333V15C15.8333 14.558 15.6577 14.1341 15.3452 13.8215C15.0326 13.509 14.6087 13.3334 14.1667 13.3334C13.7246 13.3334 13.3007 13.509 12.9882 13.8215C12.6756 14.1341 12.5 14.558 12.5 15V45C12.5 45.4421 12.6756 45.866 12.9882 46.1786C13.3007 46.4911 13.7246 46.6667 14.1667 46.6667H44.1667C44.6087 46.6667 45.0326 46.4911 45.3452 46.1786C45.6577 45.866 45.8333 45.4421 45.8333 45C45.8333 44.558 45.6577 44.1341 45.3452 43.8215C45.0326 43.509 44.6087 43.3334 44.1667 43.3334Z" fill="#ED7232"/>
</g>
<rect x="1" y="1" width="58" height="58" rx="29" stroke="#ED7232" stroke-width="2"/>
</g>
</svg>
