<svg width="60" height="60" viewBox="0 0 60 60" fill="none" xmlns="http://www.w3.org/2000/svg">
<g id="Frame 5">
<g id="Business / bar graph">
<path id="Vector" d="M33.3337 25H26.667C26.225 25 25.801 25.1756 25.4885 25.4881C25.1759 25.8007 25.0003 26.2246 25.0003 26.6666V46.6666C25.0003 47.1087 25.1759 47.5326 25.4885 47.8451C25.801 48.1577 26.225 48.3333 26.667 48.3333H33.3337C33.7757 48.3333 34.1996 48.1577 34.5122 47.8451C34.8247 47.5326 35.0003 47.1087 35.0003 46.6666V26.6666C35.0003 26.2246 34.8247 25.8007 34.5122 25.4881C34.1996 25.1756 33.7757 25 33.3337 25ZM31.667 45H28.3337V28.3333H31.667V45ZM46.667 11.6666H40.0003C39.5583 11.6666 39.1344 11.8422 38.8218 12.1548C38.5093 12.4673 38.3337 12.8913 38.3337 13.3333V46.6666C38.3337 47.1087 38.5093 47.5326 38.8218 47.8451C39.1344 48.1577 39.5583 48.3333 40.0003 48.3333H46.667C47.109 48.3333 47.5329 48.1577 47.8455 47.8451C48.1581 47.5326 48.3337 47.1087 48.3337 46.6666V13.3333C48.3337 12.8913 48.1581 12.4673 47.8455 12.1548C47.5329 11.8422 47.109 11.6666 46.667 11.6666ZM45.0003 45H41.667V15H45.0003V45ZM20.0003 35H13.3337C12.8916 35 12.4677 35.1756 12.1551 35.4881C11.8426 35.8007 11.667 36.2246 11.667 36.6666V46.6666C11.667 47.1087 11.8426 47.5326 12.1551 47.8451C12.4677 48.1577 12.8916 48.3333 13.3337 48.3333H20.0003C20.4424 48.3333 20.8663 48.1577 21.1788 47.8451C21.4914 47.5326 21.667 47.1087 21.667 46.6666V36.6666C21.667 36.2246 21.4914 35.8007 21.1788 35.4881C20.8663 35.1756 20.4424 35 20.0003 35ZM18.3337 45H15.0003V38.3333H18.3337V45Z" fill="#ED7232"/>
</g>
<rect x="1" y="1" width="58" height="58" rx="29" stroke="#ED7232" stroke-width="2"/>
</g>
</svg>
