<svg width="60" height="60" viewBox="0 0 60 60" fill="none" xmlns="http://www.w3.org/2000/svg">
<g id="Frame 5">
<g id="Users / user location">
<path id="Vector" d="M34.1503 28.1C34.7085 27.3316 35.0433 26.4238 35.1178 25.477C35.1922 24.5302 35.0034 23.5812 34.5722 22.735C34.141 21.8888 33.4842 21.1783 32.6744 20.6821C31.8646 20.1858 30.9334 19.9232 29.9836 19.9232C29.0339 19.9232 28.1026 20.1858 27.2928 20.6821C26.483 21.1783 25.8262 21.8888 25.395 22.735C24.9638 23.5812 24.775 24.5302 24.8495 25.477C24.9239 26.4238 25.2588 27.3316 25.817 28.1C25.1089 28.5512 24.4785 29.1141 23.9503 29.7667C23.8124 29.945 23.711 30.1488 23.6519 30.3664C23.5927 30.584 23.577 30.811 23.6057 31.0347C23.6343 31.2583 23.7067 31.4741 23.8187 31.6698C23.9308 31.8654 24.0802 32.0371 24.2586 32.175C24.437 32.3129 24.6408 32.4143 24.8584 32.4734C25.0759 32.5325 25.303 32.5482 25.5266 32.5196C25.7503 32.491 25.9661 32.4186 26.1617 32.3065C26.3574 32.1945 26.5291 32.045 26.667 31.8667C27.074 31.3493 27.5927 30.9306 28.1844 30.642C28.7761 30.3534 29.4253 30.2023 30.0836 30.2C30.7419 30.2023 31.3912 30.3534 31.9828 30.642C32.5745 30.9306 33.0933 31.3493 33.5003 31.8667C33.6572 32.06 33.8554 32.2158 34.0803 32.3225C34.3053 32.4292 34.5513 32.4842 34.8003 32.4833C35.1127 32.4819 35.4185 32.3927 35.6826 32.2258C35.9468 32.059 36.1588 31.8212 36.2943 31.5397C36.4298 31.2582 36.4835 30.9442 36.4492 30.6337C36.4149 30.3231 36.294 30.0285 36.1003 29.7833C35.5483 29.1178 34.8893 28.5489 34.1503 28.1ZM30.0003 26.8833C29.6439 26.8831 29.2954 26.778 28.9983 26.5812C28.7011 26.3844 28.4685 26.1045 28.3292 25.7764C28.19 25.4483 28.1503 25.0865 28.2152 24.736C28.28 24.3856 28.4466 24.0619 28.694 23.8054C28.9414 23.5489 29.2589 23.3708 29.6068 23.2934C29.9547 23.2159 30.3177 23.2425 30.6505 23.3699C30.9834 23.4972 31.2715 23.7197 31.4789 24.0095C31.6863 24.2994 31.8039 24.6438 31.817 25C31.8259 25.2441 31.7856 25.4875 31.6983 25.7157C31.611 25.9438 31.4786 26.1521 31.309 26.3279C31.1394 26.5037 30.9361 26.6435 30.7112 26.7389C30.4864 26.8344 30.2446 26.8835 30.0003 26.8833ZM44.1003 26.05C43.8663 23.6148 43.0057 21.2818 41.6023 19.278C40.1988 17.2742 38.3005 15.668 36.0919 14.6158C33.8834 13.5636 31.4401 13.1012 28.9998 13.2737C26.5595 13.4461 24.2055 14.2476 22.167 15.6C20.4156 16.7711 18.9454 18.3155 17.8619 20.1223C16.7783 21.9291 16.1084 23.9535 15.9003 26.05C15.6961 28.1327 15.9581 30.2348 16.6672 32.2038C17.3764 34.1727 18.515 35.9591 20.0003 37.4333L28.8336 46.2833C28.9886 46.4395 29.1729 46.5635 29.376 46.6481C29.5791 46.7328 29.7969 46.7763 30.017 46.7763C30.237 46.7763 30.4548 46.7328 30.6579 46.6481C30.861 46.5635 31.0454 46.4395 31.2003 46.2833L40.0003 37.4333C41.4856 35.9591 42.6242 34.1727 43.3333 32.2038C44.0425 30.2348 44.3045 28.1327 44.1003 26.05ZM37.667 35.0833L30.0003 42.75L22.3336 35.0833C21.2038 33.9534 20.3383 32.5872 19.7994 31.0829C19.2605 29.5786 19.0616 27.9736 19.217 26.3833C19.3733 24.7685 19.8866 23.2086 20.7196 21.8164C21.5526 20.4242 22.6846 19.2345 24.0336 18.3333C25.8019 17.1587 27.8775 16.5321 30.0003 16.5321C32.1231 16.5321 34.1987 17.1587 35.967 18.3333C37.3119 19.231 38.4414 20.4155 39.2742 21.8015C40.107 23.1876 40.6225 24.741 40.7836 26.35C40.944 27.9457 40.7476 29.5571 40.2086 31.0676C39.6696 32.578 38.8014 33.9497 37.667 35.0833Z" fill="#ED7232"/>
</g>
<rect x="1" y="1" width="58" height="58" rx="29" stroke="#ED7232" stroke-width="2"/>
</g>
</svg>
