<svg width="60" height="60" viewBox="0 0 60 60" fill="none" xmlns="http://www.w3.org/2000/svg">
<g id="Frame 5">
<g id="Business / invoice">
<path id="Vector" d="M25.833 27.5H29.9997C30.4417 27.5 30.8656 27.3244 31.1782 27.0118C31.4908 26.6992 31.6664 26.2753 31.6664 25.8333C31.6664 25.3913 31.4908 24.9673 31.1782 24.6548C30.8656 24.3422 30.4417 24.1666 29.9997 24.1666H28.333V23.3333C28.333 22.8913 28.1574 22.4673 27.8449 22.1548C27.5323 21.8422 27.1084 21.6666 26.6664 21.6666C26.2243 21.6666 25.8004 21.8422 25.4878 22.1548C25.1753 22.4673 24.9997 22.8913 24.9997 23.3333V24.25C23.9871 24.4556 23.087 25.0301 22.4741 25.8621C21.8613 26.694 21.5794 27.724 21.6833 28.752C21.7871 29.7801 22.2692 30.7329 23.0361 31.4255C23.8029 32.118 24.7997 32.501 25.833 32.5H27.4997C27.7207 32.5 27.9327 32.5877 28.0889 32.744C28.2452 32.9003 28.333 33.1123 28.333 33.3333C28.333 33.5543 28.2452 33.7663 28.0889 33.9225C27.9327 34.0788 27.7207 34.1666 27.4997 34.1666H23.333C22.891 34.1666 22.4671 34.3422 22.1545 34.6548C21.8419 34.9673 21.6664 35.3913 21.6664 35.8333C21.6664 36.2753 21.8419 36.6992 22.1545 37.0118C22.4671 37.3244 22.891 37.5 23.333 37.5H24.9997V38.3333C24.9997 38.7753 25.1753 39.1992 25.4878 39.5118C25.8004 39.8244 26.2243 40 26.6664 40C27.1084 40 27.5323 39.8244 27.8449 39.5118C28.1574 39.1992 28.333 38.7753 28.333 38.3333V37.4166C29.3456 37.211 30.2458 36.6364 30.8586 35.8045C31.4714 34.9726 31.7533 33.9426 31.6494 32.9145C31.5456 31.8865 31.0635 30.9337 30.2966 30.2411C29.5298 29.5485 28.533 29.1656 27.4997 29.1666H25.833C25.612 29.1666 25.4 29.0788 25.2438 28.9225C25.0875 28.7663 24.9997 28.5543 24.9997 28.3333C24.9997 28.1123 25.0875 27.9003 25.2438 27.744C25.4 27.5877 25.612 27.5 25.833 27.5ZM44.9997 30H39.9997V15C40.0009 14.7063 39.9244 14.4175 39.7781 14.1629C39.6317 13.9082 39.4207 13.6968 39.1664 13.55C38.913 13.4037 38.6256 13.3267 38.333 13.3267C38.0405 13.3267 37.753 13.4037 37.4997 13.55L32.4997 16.4166L27.4997 13.55C27.2463 13.4037 26.9589 13.3267 26.6664 13.3267C26.3738 13.3267 26.0864 13.4037 25.833 13.55L20.833 16.4166L15.833 13.55C15.5797 13.4037 15.2922 13.3267 14.9997 13.3267C14.7071 13.3267 14.4197 13.4037 14.1664 13.55C13.912 13.6968 13.701 13.9082 13.5547 14.1629C13.4083 14.4175 13.3319 14.7063 13.333 15V41.6666C13.333 42.9927 13.8598 44.2645 14.7975 45.2022C15.7352 46.1398 17.0069 46.6666 18.333 46.6666H41.6664C42.9924 46.6666 44.2642 46.1398 45.2019 45.2022C46.1396 44.2645 46.6664 42.9927 46.6664 41.6666V31.6666C46.6664 31.2246 46.4908 30.8007 46.1782 30.4881C45.8656 30.1755 45.4417 30 44.9997 30ZM18.333 43.3333C17.891 43.3333 17.4671 43.1577 17.1545 42.8451C16.8419 42.5326 16.6664 42.1086 16.6664 41.6666V17.8833L19.9997 19.7833C20.2569 19.9176 20.5428 19.9878 20.833 19.9878C21.1232 19.9878 21.4091 19.9176 21.6664 19.7833L26.6664 16.9166L31.6664 19.7833C31.9236 19.9176 32.2095 19.9878 32.4997 19.9878C32.7899 19.9878 33.0758 19.9176 33.333 19.7833L36.6664 17.8833V41.6666C36.6709 42.2352 36.7723 42.7988 36.9664 43.3333H18.333ZM43.333 41.6666C43.333 42.1086 43.1574 42.5326 42.8449 42.8451C42.5323 43.1577 42.1084 43.3333 41.6664 43.3333C41.2243 43.3333 40.8004 43.1577 40.4878 42.8451C40.1753 42.5326 39.9997 42.1086 39.9997 41.6666V33.3333H43.333V41.6666Z" fill="#ED7232"/>
</g>
<rect x="1" y="1" width="58" height="58" rx="29" stroke="#ED7232" stroke-width="2"/>
</g>
</svg>
