<svg width="60" height="60" viewBox="0 0 60 60" fill="none" xmlns="http://www.w3.org/2000/svg">
<g id="Frame 5">
<g id="File and Folder / bookmark document">
<path id="Vector" d="M22.5003 26.6667H24.167C24.609 26.6667 25.0329 26.4911 25.3455 26.1786C25.6581 25.866 25.8337 25.4421 25.8337 25C25.8337 24.558 25.6581 24.1341 25.3455 23.8215C25.0329 23.509 24.609 23.3334 24.167 23.3334H22.5003C22.0583 23.3334 21.6344 23.509 21.3218 23.8215C21.0093 24.1341 20.8337 24.558 20.8337 25C20.8337 25.4421 21.0093 25.866 21.3218 26.1786C21.6344 26.4911 22.0583 26.6667 22.5003 26.6667ZM29.167 36.6667H22.5003C22.0583 36.6667 21.6344 36.8423 21.3218 37.1549C21.0093 37.4674 20.8337 37.8913 20.8337 38.3334C20.8337 38.7754 21.0093 39.1993 21.3218 39.5119C21.6344 39.8244 22.0583 40 22.5003 40H29.167C29.609 40 30.0329 39.8244 30.3455 39.5119C30.6581 39.1993 30.8337 38.7754 30.8337 38.3334C30.8337 37.8913 30.6581 37.4674 30.3455 37.1549C30.0329 36.8423 29.609 36.6667 29.167 36.6667ZM29.167 30H22.5003C22.0583 30 21.6344 30.1756 21.3218 30.4882C21.0093 30.8008 20.8337 31.2247 20.8337 31.6667C20.8337 32.1087 21.0093 32.5327 21.3218 32.8452C21.6344 33.1578 22.0583 33.3334 22.5003 33.3334H29.167C29.609 33.3334 30.0329 33.1578 30.3455 32.8452C30.6581 32.5327 30.8337 32.1087 30.8337 31.6667C30.8337 31.2247 30.6581 30.8008 30.3455 30.4882C30.0329 30.1756 29.609 30 29.167 30ZM40.7003 25.6334C40.828 25.3299 40.8628 24.9953 40.8005 24.672C40.7382 24.3487 40.5816 24.0511 40.3503 23.8167L30.3503 13.8167C30.2126 13.6871 30.055 13.5802 29.8837 13.5C29.8339 13.493 29.7834 13.493 29.7337 13.5L29.267 13.3334H19.167C17.8409 13.3334 16.5691 13.8602 15.6315 14.7978C14.6938 15.7355 14.167 17.0073 14.167 18.3334V41.6667C14.167 42.9928 14.6938 44.2646 15.6315 45.2022C16.5691 46.1399 17.8409 46.6667 19.167 46.6667H29.167C29.609 46.6667 30.0329 46.4911 30.3455 46.1786C30.6581 45.866 30.8337 45.4421 30.8337 45C30.8337 44.558 30.6581 44.1341 30.3455 43.8215C30.0329 43.509 29.609 43.3334 29.167 43.3334H19.167C18.725 43.3334 18.301 43.1578 17.9885 42.8452C17.6759 42.5327 17.5003 42.1087 17.5003 41.6667V18.3334C17.5003 17.8913 17.6759 17.4674 17.9885 17.1549C18.301 16.8423 18.725 16.6667 19.167 16.6667H27.5003V21.6667C27.5003 22.9928 28.0271 24.2646 28.9648 25.2022C29.9025 26.1399 31.1742 26.6667 32.5003 26.6667H39.167C39.496 26.6651 39.8172 26.5661 40.0901 26.3822C40.363 26.1983 40.5753 25.9377 40.7003 25.6334ZM32.5003 23.3334C32.0583 23.3334 31.6344 23.1578 31.3218 22.8452C31.0093 22.5327 30.8337 22.1087 30.8337 21.6667V19.0167L35.1503 23.3334H32.5003ZM44.167 30H35.8337C35.3916 30 34.9677 30.1756 34.6551 30.4882C34.3426 30.8008 34.167 31.2247 34.167 31.6667V45C34.1678 45.3015 34.2504 45.5972 34.4059 45.8555C34.5615 46.1138 34.7842 46.325 35.0503 46.4667C35.3109 46.6005 35.6022 46.6633 35.8948 46.6487C36.1874 46.634 36.471 46.5425 36.717 46.3834L40.0003 44.2167L43.3337 46.3834C43.5826 46.5274 43.8647 46.6045 44.1523 46.6072C44.4399 46.6099 44.7233 46.5382 44.975 46.3989C45.2266 46.2597 45.438 46.0576 45.5885 45.8125C45.7389 45.5674 45.8234 45.2875 45.8337 45V31.6667C45.8337 31.2247 45.6581 30.8008 45.3455 30.4882C45.0329 30.1756 44.609 30 44.167 30ZM42.5003 41.8667L40.9337 40.8167C40.658 40.6304 40.333 40.5309 40.0003 40.5309C39.6677 40.5309 39.3426 40.6304 39.067 40.8167L37.5003 41.8667V33.3334H42.5003V41.8667Z" fill="#ED7232"/>
</g>
<rect x="1" y="1" width="58" height="58" rx="29" stroke="#ED7232" stroke-width="2"/>
</g>
</svg>
