<svg width="60" height="60" viewBox="0 0 60 60" fill="none" xmlns="http://www.w3.org/2000/svg">
<g id="Frame 5">
<g id="User Interface / Favorite">
<path id="Vector" d="M46.6665 26.1167C46.5612 25.8118 46.3698 25.544 46.1153 25.3458C45.8609 25.1476 45.5545 25.0275 45.2331 25L35.7498 23.6167L31.4998 15C31.3633 14.7182 31.1502 14.4806 30.8849 14.3143C30.6197 14.148 30.3129 14.0598 29.9998 14.0598C29.6867 14.0598 29.3799 14.148 29.1146 14.3143C28.8494 14.4806 28.6363 14.7182 28.4998 15L24.2498 23.6L14.7665 25C14.458 25.0438 14.168 25.1733 13.9294 25.3736C13.6908 25.5739 13.5131 25.8371 13.4165 26.1333C13.328 26.4228 13.3201 26.7309 13.3935 27.0245C13.4669 27.3181 13.6189 27.5862 13.8331 27.8L20.7165 34.4667L19.0498 43.9333C18.9825 44.2474 19.0074 44.5742 19.1214 44.8744C19.2355 45.1746 19.4339 45.4355 19.6927 45.6257C19.9515 45.8158 20.2598 45.9271 20.5803 45.9462C20.9009 45.9653 21.2202 45.8914 21.4998 45.7333L29.9998 41.2833L38.4998 45.7333C38.7337 45.8653 38.9979 45.9342 39.2665 45.9333C39.6195 45.9346 39.9638 45.8237 40.2498 45.6167C40.5084 45.4314 40.7085 45.1761 40.8267 44.8808C40.9448 44.5854 40.976 44.2625 40.9165 43.95L39.2498 34.4833L46.1331 27.8167C46.3738 27.6128 46.5516 27.3448 46.646 27.0439C46.7404 26.743 46.7475 26.4215 46.6665 26.1167ZM36.4165 32.7833C36.2236 32.9707 36.0788 33.2019 35.9947 33.4573C35.9105 33.7127 35.8894 33.9847 35.9331 34.25L37.1331 41.25L30.8665 37.9167C30.6229 37.7962 30.3549 37.7335 30.0831 37.7335C29.8114 37.7335 29.5433 37.7962 29.2998 37.9167L23.0331 41.25L24.2331 34.25C24.2769 33.9847 24.2557 33.7127 24.1716 33.4573C24.0874 33.2019 23.9427 32.9707 23.7498 32.7833L18.7498 27.7833L25.7665 26.7667C26.0365 26.7291 26.2931 26.6259 26.514 26.4661C26.7348 26.3063 26.9131 26.0947 27.0331 25.85L29.9998 19.5L33.1331 25.8667C33.2532 26.1114 33.4315 26.3229 33.6523 26.4828C33.8731 26.6426 34.1298 26.7458 34.3998 26.7833L41.4165 27.8L36.4165 32.7833Z" fill="#ED7232"/>
</g>
<rect x="1" y="1" width="58" height="58" rx="29" stroke="#ED7232" stroke-width="2"/>
</g>
</svg>
