<svg width="60" height="60" viewBox="0 0 60 60" fill="none" xmlns="http://www.w3.org/2000/svg">
<g id="Frame 5">
<g id="Outline/Brands/Slack">
<g id="Icon">
<path fill-rule="evenodd" clip-rule="evenodd" d="M34.1654 12.0833C32.0917 12.0833 30.4154 13.7596 30.4154 15.8333V24.1666C30.4154 26.2403 32.0917 27.9166 34.1654 27.9166C36.2391 27.9166 37.9154 26.2403 37.9154 24.1666V15.8333C37.9154 13.7596 36.2391 12.0833 34.1654 12.0833ZM32.9154 15.8333C32.9154 15.1403 33.4724 14.5833 34.1654 14.5833C34.8583 14.5833 35.4154 15.1403 35.4154 15.8333V24.1666C35.4154 24.8596 34.8583 25.4166 34.1654 25.4166C33.4724 25.4166 32.9154 24.8596 32.9154 24.1666V15.8333Z" fill="#ED7232"/>
<path fill-rule="evenodd" clip-rule="evenodd" d="M44.1654 20.4166C42.0917 20.4166 40.4154 22.0929 40.4154 24.1666V26.6666C40.4154 27.3569 40.975 27.9166 41.6654 27.9166H44.1654C46.2391 27.9166 47.9154 26.2403 47.9154 24.1666C47.9154 22.0929 46.2391 20.4166 44.1654 20.4166ZM42.9154 24.1666C42.9154 23.4736 43.4724 22.9166 44.1654 22.9166C44.8583 22.9166 45.4154 23.4736 45.4154 24.1666C45.4154 24.8596 44.8583 25.4166 44.1654 25.4166H42.9154V24.1666Z" fill="#ED7232"/>
<path fill-rule="evenodd" clip-rule="evenodd" d="M22.082 35.8333C22.082 33.7596 23.7583 32.0833 25.832 32.0833C27.9057 32.0833 29.582 33.7596 29.582 35.8333V44.1666C29.582 46.2403 27.9057 47.9166 25.832 47.9166C23.7583 47.9166 22.082 46.2403 22.082 44.1666V35.8333ZM25.832 34.5833C25.1391 34.5833 24.582 35.1403 24.582 35.8333V44.1666C24.582 44.8596 25.1391 45.4166 25.832 45.4166C26.525 45.4166 27.082 44.8596 27.082 44.1666V35.8333C27.082 35.1403 26.525 34.5833 25.832 34.5833Z" fill="#ED7232"/>
<path fill-rule="evenodd" clip-rule="evenodd" d="M15.832 32.0833C13.7583 32.0833 12.082 33.7596 12.082 35.8333C12.082 37.9069 13.7583 39.5833 15.832 39.5833C17.9057 39.5833 19.582 37.9069 19.582 35.8333V33.3333C19.582 32.6429 19.0224 32.0833 18.332 32.0833H15.832ZM14.582 35.8333C14.582 35.1403 15.1391 34.5833 15.832 34.5833H17.082V35.8333C17.082 36.5262 16.525 37.0833 15.832 37.0833C15.1391 37.0833 14.582 36.5262 14.582 35.8333Z" fill="#ED7232"/>
<path fill-rule="evenodd" clip-rule="evenodd" d="M32.082 34.1666C32.082 32.0929 33.7583 30.4166 35.832 30.4166H44.1654C46.2391 30.4166 47.9154 32.0929 47.9154 34.1666C47.9154 36.2403 46.2391 37.9166 44.1654 37.9166H35.832C33.7583 37.9166 32.082 36.2403 32.082 34.1666ZM35.832 32.9166C35.1391 32.9166 34.582 33.4736 34.582 34.1666C34.582 34.8596 35.1391 35.4166 35.832 35.4166H44.1654C44.8583 35.4166 45.4154 34.8596 45.4154 34.1666C45.4154 33.4736 44.8583 32.9166 44.1654 32.9166H35.832Z" fill="#ED7232"/>
<path fill-rule="evenodd" clip-rule="evenodd" d="M33.332 40.4166C32.6417 40.4166 32.082 40.9762 32.082 41.6666V44.1666C32.082 46.2403 33.7583 47.9166 35.832 47.9166C37.9057 47.9166 39.582 46.2403 39.582 44.1666C39.582 42.0929 37.9057 40.4166 35.832 40.4166H33.332ZM34.582 44.1666V42.9166H35.832C36.525 42.9166 37.082 43.4736 37.082 44.1666C37.082 44.8596 36.525 45.4166 35.832 45.4166C35.1391 45.4166 34.582 44.8596 34.582 44.1666Z" fill="#ED7232"/>
<path fill-rule="evenodd" clip-rule="evenodd" d="M12.082 25.8333C12.082 23.7596 13.7583 22.0833 15.832 22.0833H24.1654C26.2391 22.0833 27.9154 23.7596 27.9154 25.8333C27.9154 27.9069 26.2391 29.5833 24.1654 29.5833H15.832C13.7583 29.5833 12.082 27.9069 12.082 25.8333ZM15.832 24.5833C15.1391 24.5833 14.582 25.1403 14.582 25.8333C14.582 26.5262 15.1391 27.0833 15.832 27.0833H24.1654C24.8583 27.0833 25.4154 26.5262 25.4154 25.8333C25.4154 25.1403 24.8583 24.5833 24.1654 24.5833H15.832Z" fill="#ED7232"/>
<path fill-rule="evenodd" clip-rule="evenodd" d="M24.1654 12.0833C22.0917 12.0833 20.4154 13.7596 20.4154 15.8333C20.4154 17.9069 22.0917 19.5833 24.1654 19.5833H26.6654C27.3557 19.5833 27.9154 19.0236 27.9154 18.3333V15.8333C27.9154 13.7596 26.2391 12.0833 24.1654 12.0833ZM22.9154 15.8333C22.9154 15.1403 23.4724 14.5833 24.1654 14.5833C24.8583 14.5833 25.4154 15.1403 25.4154 15.8333V17.0833H24.1654C23.4724 17.0833 22.9154 16.5262 22.9154 15.8333Z" fill="#ED7232"/>
</g>
</g>
<rect x="1" y="1" width="58" height="58" rx="29" stroke="#ED7232" stroke-width="2"/>
</g>
</svg>
