<svg width="60" height="60" viewBox="0 0 60 60" fill="none" xmlns="http://www.w3.org/2000/svg">
<g id="Frame 5">
<g id="Business / presentation board">
<path id="Vector" d="M44.9997 33.3334H43.333V15C43.333 14.558 43.1574 14.1341 42.8449 13.8215C42.5323 13.509 42.1084 13.3334 41.6663 13.3334H18.333C17.891 13.3334 17.4671 13.509 17.1545 13.8215C16.8419 14.1341 16.6663 14.558 16.6663 15V33.3334H14.9997C14.5576 33.3334 14.1337 33.509 13.8212 33.8215C13.5086 34.1341 13.333 34.558 13.333 35C13.333 35.4421 13.5086 35.866 13.8212 36.1786C14.1337 36.4911 14.5576 36.6667 14.9997 36.6667H28.333V38.5834L20.7497 43.5834C20.4386 43.776 20.1995 44.0656 20.0693 44.4075C19.9391 44.7495 19.9251 45.1247 20.0293 45.4755C20.1336 45.8262 20.3504 46.1328 20.6462 46.3481C20.9421 46.5634 21.3006 46.6754 21.6663 46.6667C21.994 46.6705 22.3146 46.5714 22.583 46.3834L28.333 42.5834V45C28.333 45.4421 28.5086 45.866 28.8212 46.1786C29.1337 46.4911 29.5576 46.6667 29.9997 46.6667C30.4417 46.6667 30.8656 46.4911 31.1782 46.1786C31.4907 45.866 31.6663 45.4421 31.6663 45V42.5834L37.4163 46.3834C37.6847 46.5714 38.0053 46.6705 38.333 46.6667C38.6891 46.664 39.0349 46.5472 39.3198 46.3336C39.6048 46.1201 39.8138 45.8208 39.9163 45.4798C40.0188 45.1388 40.0093 44.7739 39.8894 44.4386C39.7694 44.1033 39.5452 43.8153 39.2497 43.6167L31.6663 38.6167V36.6667H44.9997C45.4417 36.6667 45.8656 36.4911 46.1782 36.1786C46.4907 35.866 46.6663 35.4421 46.6663 35C46.6663 34.558 46.4907 34.1341 46.1782 33.8215C45.8656 33.509 45.4417 33.3334 44.9997 33.3334ZM39.9997 33.3334H19.9997V16.6667H39.9997V33.3334ZM24.9997 30C25.2742 29.9986 25.5441 29.9294 25.7854 29.7986C26.0268 29.6677 26.232 29.4793 26.383 29.25L28.5997 25.9167L30.483 27.8167C30.6579 27.9927 30.8698 28.1274 31.1034 28.211C31.3369 28.2946 31.5862 28.325 31.833 28.3C32.0787 28.2731 32.3154 28.1918 32.5258 28.0621C32.7362 27.9324 32.9152 27.7575 33.0497 27.55L36.383 22.55C36.5793 22.1841 36.6319 21.758 36.5305 21.3553C36.4292 20.9526 36.1811 20.6023 35.8349 20.3729C35.4888 20.1435 35.0694 20.0516 34.6591 20.1152C34.2487 20.1788 33.8768 20.3933 33.6163 20.7167L31.3997 24.05L29.5163 22.15C29.3415 21.9741 29.1295 21.8394 28.896 21.7558C28.6624 21.6722 28.4132 21.6417 28.1663 21.6667C27.9206 21.6937 27.684 21.775 27.4735 21.9047C27.2631 22.0344 27.0842 22.2093 26.9497 22.4167L23.6163 27.4167C23.3751 27.7841 23.2888 28.232 23.3762 28.6628C23.4636 29.0935 23.7177 29.4723 24.083 29.7167C24.3514 29.9047 24.672 30.0038 24.9997 30Z" fill="#ED7232"/>
</g>
<rect x="1" y="1" width="58" height="58" rx="29" stroke="#ED7232" stroke-width="2"/>
</g>
</svg>
