<svg width="50" height="50" viewBox="0 0 50 50" fill="none" xmlns="http://www.w3.org/2000/svg">
<g id="Medical / health">
<path id="Vector" d="M29.1666 22.9168H27.0833V20.8334C27.0833 20.2809 26.8638 19.751 26.4731 19.3603C26.0824 18.9696 25.5525 18.7501 24.9999 18.7501C24.4474 18.7501 23.9175 18.9696 23.5268 19.3603C23.1361 19.751 22.9166 20.2809 22.9166 20.8334V22.9168H20.8333C20.2807 22.9168 19.7508 23.1363 19.3601 23.527C18.9694 23.9177 18.7499 24.4476 18.7499 25.0001C18.7499 25.5526 18.9694 26.0825 19.3601 26.4732C19.7508 26.8639 20.2807 27.0834 20.8333 27.0834H22.9166V29.1668C22.9166 29.7193 23.1361 30.2492 23.5268 30.6399C23.9175 31.0306 24.4474 31.2501 24.9999 31.2501C25.5525 31.2501 26.0824 31.0306 26.4731 30.6399C26.8638 30.2492 27.0833 29.7193 27.0833 29.1668V27.0834H29.1666C29.7191 27.0834 30.249 26.8639 30.6397 26.4732C31.0304 26.0825 31.2499 25.5526 31.2499 25.0001C31.2499 24.4476 31.0304 23.9177 30.6397 23.527C30.249 23.1363 29.7191 22.9168 29.1666 22.9168ZM41.9999 10.4168C39.7785 8.21823 36.8444 6.88608 33.7271 6.66069C30.6098 6.43529 27.5145 7.3315 24.9999 9.1876C22.3492 7.21601 19.0499 6.322 15.7664 6.6856C12.4829 7.04919 9.45917 8.64339 7.30403 11.1472C5.1489 13.6509 4.02247 16.8783 4.15159 20.1793C4.28071 23.4803 5.65579 26.6098 7.99992 28.9376L20.4999 41.5418C21.6718 42.7122 23.2603 43.3696 24.9166 43.3696C26.5728 43.3696 28.1614 42.7122 29.3333 41.5418L41.8333 28.9376C43.0644 27.7348 44.0456 26.3005 44.7206 24.7173C45.3957 23.134 45.7511 21.4329 45.7666 19.7118C45.7821 17.9907 45.4573 16.2836 44.8109 14.6884C44.1645 13.0932 43.2092 11.6415 41.9999 10.4168ZM39.0624 25.9584L26.5624 38.4584C26.3688 38.6537 26.1383 38.8087 25.8845 38.9145C25.6306 39.0202 25.3583 39.0747 25.0833 39.0747C24.8082 39.0747 24.5359 39.0202 24.2821 38.9145C24.0282 38.8087 23.7978 38.6537 23.6041 38.4584L11.1041 25.9584C9.47025 24.2883 8.55536 22.0448 8.55536 19.7084C8.55536 17.372 9.47025 15.1285 11.1041 13.4584C12.769 11.8147 15.0145 10.893 17.3541 10.893C19.6937 10.893 21.9392 11.8147 23.6041 13.4584C23.7978 13.6537 24.0282 13.8087 24.2821 13.9145C24.5359 14.0202 24.8082 14.0747 25.0833 14.0747C25.3583 14.0747 25.6306 14.0202 25.8845 13.9145C26.1383 13.8087 26.3688 13.6537 26.5624 13.4584C28.2273 11.8147 30.4728 10.893 32.8124 10.893C35.1521 10.893 37.3975 11.8147 39.0624 13.4584C40.7088 15.1304 41.6316 17.3828 41.6316 19.7293C41.6316 22.0758 40.7088 24.3281 39.0624 26.0001V25.9584Z" fill="#F58021"/>
</g>
</svg>
