<svg width="50" height="50" viewBox="0 0 50 50" fill="none" xmlns="http://www.w3.org/2000/svg">
<g id="Education / brain">
<path id="Vector" d="M45.8333 22.9166C45.8392 21.4482 45.4569 20.0043 44.7252 18.7311C43.9935 17.458 42.9384 16.4008 41.6667 15.6666C41.698 15.3062 41.698 14.9437 41.6667 14.5833C41.6667 12.9257 41.0082 11.3359 39.8361 10.1638C38.664 8.99173 37.0743 8.33325 35.4167 8.33325H35.0417C34.6947 7.37141 34.1171 6.50937 33.3595 5.82273C32.6018 5.13609 31.6873 4.64583 30.696 4.39493C29.7048 4.14403 28.6671 4.14017 27.674 4.38367C26.6809 4.62718 25.7628 5.11061 25 5.79159C24.2373 5.11061 23.3191 4.62718 22.326 4.38367C21.3329 4.14017 20.2952 4.14403 19.304 4.39493C18.3128 4.64583 17.3982 5.13609 16.6405 5.82273C15.8829 6.50937 15.3053 7.37141 14.9583 8.33325H14.5833C12.9257 8.33325 11.336 8.99173 10.1639 10.1638C8.99182 11.3359 8.33334 12.9257 8.33334 14.5833C8.30199 14.9437 8.30199 15.3062 8.33334 15.6666C7.15097 16.3349 6.14986 17.2821 5.41718 18.4257C4.68449 19.5693 4.24242 20.8747 4.12946 22.2281C4.0165 23.5816 4.23607 24.9422 4.76905 26.1914C5.30203 27.4407 6.13228 28.5407 7.18751 29.3958C6.50474 30.6692 6.16483 32.0983 6.20114 33.5428C6.23746 34.9873 6.64874 36.3976 7.39464 37.6351C8.14053 38.8727 9.1954 39.895 10.4557 40.6018C11.716 41.3086 13.1384 41.6755 14.5833 41.6666H14.9583C15.3053 42.6284 15.8829 43.4905 16.6405 44.1771C17.3982 44.8638 18.3128 45.354 19.304 45.6049C20.2952 45.8558 21.3329 45.8597 22.326 45.6162C23.3191 45.3727 24.2373 44.8892 25 44.2083C25.7628 44.8892 26.6809 45.3727 27.674 45.6162C28.6671 45.8597 29.7048 45.8558 30.696 45.6049C31.6873 45.354 32.6018 44.8638 33.3595 44.1771C34.1171 43.4905 34.6947 42.6284 35.0417 41.6666H35.4167C36.8528 41.6575 38.2622 41.2775 39.5081 40.5633C40.7541 39.8491 41.7943 38.825 42.528 37.5904C43.2616 36.3558 43.6637 34.9526 43.6953 33.5168C43.7269 32.081 43.3869 30.6614 42.7083 29.3958C43.6801 28.6178 44.4652 27.6319 45.0059 26.5107C45.5467 25.3895 45.8294 24.1614 45.8333 22.9166ZM22.9167 17.8124C22.4629 17.5529 21.9892 17.33 21.5 17.1458C20.9751 16.9689 20.4015 17.0079 19.9053 17.254C19.4091 17.5002 19.031 17.9333 18.8542 18.4583C18.6774 18.9832 18.7163 19.5568 18.9625 20.053C19.2086 20.5492 19.6418 20.9273 20.1667 21.1041C20.9686 21.394 21.6623 21.923 22.1541 22.6197C22.6459 23.3164 22.912 24.1472 22.9167 24.9999V28.2291C22.4629 27.9696 21.9892 27.7466 21.5 27.5624C20.9751 27.3856 20.4015 27.4246 19.9053 27.6707C19.4091 27.9168 19.031 28.35 18.8542 28.8749C18.6774 29.3998 18.7163 29.9735 18.9625 30.4697C19.2086 30.9659 19.6418 31.3439 20.1667 31.5208C20.9686 31.8107 21.6623 32.3397 22.1541 33.0364C22.6459 33.733 22.912 34.5638 22.9167 35.4166V39.5833C22.9167 40.1358 22.6972 40.6657 22.3065 41.0564C21.9158 41.4471 21.3859 41.6666 20.8333 41.6666C20.4303 41.664 20.0366 41.5445 19.7001 41.3226C19.3636 41.1007 19.0987 40.786 18.9375 40.4166C19.2868 40.2116 19.621 39.9818 19.9375 39.7291C20.1482 39.554 20.3223 39.3391 20.4499 39.0967C20.5775 38.8543 20.6562 38.5892 20.6813 38.3164C20.7064 38.0437 20.6776 37.7686 20.5965 37.507C20.5153 37.2453 20.3834 37.0022 20.2083 36.7916C20.0332 36.5809 19.8184 36.4068 19.576 36.2792C19.3336 36.1516 19.0685 36.0729 18.7957 36.0478C18.5229 36.0226 18.2479 36.0515 17.9862 36.1326C17.7246 36.2138 17.4815 36.3457 17.2708 36.5208C16.5186 37.154 15.5666 37.5009 14.5833 37.4999C13.4783 37.4999 12.4185 37.0609 11.6371 36.2795C10.8557 35.4981 10.4167 34.4383 10.4167 33.3333C10.4266 32.5491 10.6577 31.7836 11.0833 31.1249C11.5509 31.2088 12.025 31.2506 12.5 31.2499C13.0525 31.2499 13.5824 31.0304 13.9731 30.6397C14.3638 30.249 14.5833 29.7191 14.5833 29.1666C14.5833 28.6141 14.3638 28.0841 13.9731 27.6934C13.5824 27.3027 13.0525 27.0833 12.5 27.0833C12.0079 27.0861 11.5198 26.9941 11.0625 26.8124C10.3132 26.5422 9.6571 26.0628 9.17186 25.4312C8.68663 24.7995 8.39261 24.042 8.32465 23.2484C8.25669 22.4548 8.41763 21.6583 8.7884 20.9533C9.15918 20.2484 9.72425 19.6644 10.4167 19.2708C10.7127 19.5431 11.0336 19.7872 11.375 19.9999C11.8557 20.2762 12.4265 20.3502 12.9617 20.2056C13.497 20.0611 13.9529 19.7098 14.2292 19.2291C14.5054 18.7484 14.5794 18.1776 14.4349 17.6424C14.2903 17.1071 13.939 16.6512 13.4583 16.3749C13.1651 16.2131 12.9205 15.9757 12.75 15.6874C12.5574 15.3529 12.4703 14.9681 12.5 14.5833C12.5 14.0307 12.7195 13.5008 13.1102 13.1101C13.5009 12.7194 14.0308 12.4999 14.5833 12.4999C14.7285 12.4797 14.8757 12.4797 15.0208 12.4999C15.1311 12.8347 15.2634 13.1617 15.4167 13.4791C15.5528 13.7178 15.7348 13.9272 15.9522 14.0953C16.1695 14.2634 16.418 14.3869 16.6833 14.4585C16.9486 14.5302 17.2255 14.5486 17.4979 14.5128C17.7704 14.477 18.0331 14.3877 18.2708 14.2499C18.7327 13.972 19.0689 13.5259 19.2088 13.0053C19.3486 12.4847 19.2813 11.9302 19.0208 11.4583C18.846 11.1387 18.753 10.7808 18.75 10.4166C18.75 9.86405 18.9695 9.33415 19.3602 8.94345C19.7509 8.55275 20.2808 8.33325 20.8333 8.33325C21.3859 8.33325 21.9158 8.55275 22.3065 8.94345C22.6972 9.33415 22.9167 9.86405 22.9167 10.4166V17.8124ZM38.9375 26.8124C38.4802 26.9941 37.9921 27.0861 37.5 27.0833C36.9475 27.0833 36.4176 27.3027 36.0269 27.6934C35.6362 28.0841 35.4167 28.6141 35.4167 29.1666C35.4167 29.7191 35.6362 30.249 36.0269 30.6397C36.4176 31.0304 36.9475 31.2499 37.5 31.2499C37.975 31.2506 38.4491 31.2088 38.9167 31.1249C39.3423 31.7836 39.5734 32.5491 39.5833 33.3333C39.5833 34.4383 39.1444 35.4981 38.363 36.2795C37.5816 37.0609 36.5217 37.4999 35.4167 37.4999C34.4334 37.5009 33.4814 37.154 32.7292 36.5208C32.3037 36.1671 31.7552 35.997 31.2043 36.0478C30.6534 36.0986 30.1453 36.3661 29.7917 36.7916C29.4381 37.217 29.2679 37.7655 29.3187 38.3164C29.3695 38.8673 29.6371 39.3755 30.0625 39.7291C30.379 39.9818 30.7132 40.2116 31.0625 40.4166C30.9013 40.786 30.6364 41.1007 30.2999 41.3226C29.9634 41.5445 29.5697 41.664 29.1667 41.6666C28.6141 41.6666 28.0842 41.4471 27.6935 41.0564C27.3028 40.6657 27.0833 40.1358 27.0833 39.5833V35.4166C27.088 34.5638 27.3541 33.733 27.8459 33.0364C28.3377 32.3397 29.0314 31.8107 29.8333 31.5208C30.3582 31.3439 30.7914 30.9659 31.0376 30.4697C31.2837 29.9735 31.3227 29.3998 31.1458 28.8749C30.969 28.35 30.5909 27.9168 30.0948 27.6707C29.5986 27.4246 29.0249 27.3856 28.5 27.5624C28.0108 27.7466 27.5371 27.9696 27.0833 28.2291V24.9999C27.088 24.1472 27.3541 23.3164 27.8459 22.6197C28.3377 21.923 29.0314 21.394 29.8333 21.1041C30.3582 20.9273 30.7914 20.5492 31.0376 20.053C31.2837 19.5568 31.3227 18.9832 31.1458 18.4583C30.969 17.9333 30.5909 17.5002 30.0948 17.254C29.5986 17.0079 29.0249 16.9689 28.5 17.1458C28.0108 17.33 27.5371 17.5529 27.0833 17.8124V10.4166C27.0833 9.86405 27.3028 9.33415 27.6935 8.94345C28.0842 8.55275 28.6141 8.33325 29.1667 8.33325C29.7192 8.33325 30.2491 8.55275 30.6398 8.94345C31.0305 9.33415 31.25 9.86405 31.25 10.4166C31.247 10.7808 31.154 11.1387 30.9792 11.4583C30.8406 11.6948 30.75 11.9564 30.7127 12.228C30.6754 12.4996 30.692 12.7759 30.7617 13.041C30.8314 13.3062 30.9527 13.555 31.1187 13.7731C31.2847 13.9913 31.4922 14.1746 31.7292 14.3124C31.967 14.4502 32.2296 14.5395 32.5021 14.5753C32.7745 14.6111 33.0514 14.5927 33.3167 14.521C33.582 14.4494 33.8305 14.3259 34.0479 14.1578C34.2653 13.9897 34.4472 13.7803 34.5833 13.5416C34.7393 13.204 34.8715 12.8559 34.9792 12.4999C35.1243 12.4797 35.2715 12.4797 35.4167 12.4999C35.9692 12.4999 36.4991 12.7194 36.8898 13.1101C37.2805 13.5008 37.5 14.0307 37.5 14.5833C37.4968 14.9917 37.3737 15.3901 37.1458 15.7291C36.9755 15.9994 36.7388 16.2217 36.4583 16.3749C35.9776 16.6512 35.6264 17.1071 35.4818 17.6424C35.3372 18.1776 35.4112 18.7484 35.6875 19.2291C35.9638 19.7098 36.4197 20.0611 36.9549 20.2056C37.4902 20.3502 38.061 20.2762 38.5417 19.9999C38.9157 19.7976 39.2652 19.553 39.5833 19.2708C40.2781 19.6575 40.8477 20.235 41.2249 20.935C41.6021 21.635 41.7711 22.4284 41.712 23.2213C41.6528 24.0143 41.368 24.7738 40.8912 25.4101C40.4143 26.0464 39.7653 26.533 39.0208 26.8124H38.9375Z" fill="#F58021"/>
</g>
</svg>
