<svg width="50" height="50" viewBox="0 0 50 50" fill="none" xmlns="http://www.w3.org/2000/svg">
<g id="Business / money">
<path id="Vector" d="M45.833 35.4166H4.16634C3.61381 35.4166 3.0839 35.6361 2.6932 36.0268C2.3025 36.4175 2.08301 36.9474 2.08301 37.4999C2.08301 38.0525 2.3025 38.5824 2.6932 38.9731C3.0839 39.3638 3.61381 39.5833 4.16634 39.5833H45.833C46.3855 39.5833 46.9154 39.3638 47.3061 38.9731C47.6968 38.5824 47.9163 38.0525 47.9163 37.4999C47.9163 36.9474 47.6968 36.4175 47.3061 36.0268C46.9154 35.6361 46.3855 35.4166 45.833 35.4166ZM45.833 43.7499H4.16634C3.61381 43.7499 3.0839 43.9694 2.6932 44.3601C2.3025 44.7508 2.08301 45.2807 2.08301 45.8333C2.08301 46.3858 2.3025 46.9157 2.6932 47.3064C3.0839 47.6971 3.61381 47.9166 4.16634 47.9166H45.833C46.3855 47.9166 46.9154 47.6971 47.3061 47.3064C47.6968 46.9157 47.9163 46.3858 47.9163 45.8333C47.9163 45.2807 47.6968 44.7508 47.3061 44.3601C46.9154 43.9694 46.3855 43.7499 45.833 43.7499ZM12.4997 14.5833C12.0876 14.5833 11.6848 14.7054 11.3422 14.9344C10.9996 15.1633 10.7326 15.4886 10.5749 15.8693C10.4172 16.25 10.376 16.6689 10.4564 17.073C10.5368 17.4771 10.7352 17.8484 11.0265 18.1397C11.3179 18.4311 11.6891 18.6295 12.0932 18.7099C12.4974 18.7903 12.9163 18.749 13.2969 18.5913C13.6776 18.4337 14.003 18.1666 14.2319 17.824C14.4608 17.4814 14.583 17.0786 14.583 16.6666C14.583 16.114 14.3635 15.5841 13.9728 15.1934C13.5821 14.8027 13.0522 14.5833 12.4997 14.5833ZM41.6663 2.08325H8.33301C6.6754 2.08325 5.08569 2.74173 3.91359 3.91383C2.74149 5.08594 2.08301 6.67565 2.08301 8.33325V24.9999C2.08301 26.6575 2.74149 28.2472 3.91359 29.4193C5.08569 30.5914 6.6754 31.2499 8.33301 31.2499H41.6663C43.3239 31.2499 44.9137 30.5914 46.0858 29.4193C47.2579 28.2472 47.9163 26.6575 47.9163 24.9999V8.33325C47.9163 6.67565 47.2579 5.08594 46.0858 3.91383C44.9137 2.74173 43.3239 2.08325 41.6663 2.08325ZM43.7497 24.9999C43.7497 25.5525 43.5302 26.0824 43.1395 26.4731C42.7488 26.8638 42.2189 27.0833 41.6663 27.0833H8.33301C7.78047 27.0833 7.25057 26.8638 6.85987 26.4731C6.46917 26.0824 6.24967 25.5525 6.24967 24.9999V8.33325C6.24967 7.78072 6.46917 7.25081 6.85987 6.86011C7.25057 6.46941 7.78047 6.24992 8.33301 6.24992H41.6663C42.2189 6.24992 42.7488 6.46941 43.1395 6.86011C43.5302 7.25081 43.7497 7.78072 43.7497 8.33325V24.9999ZM24.9997 10.4166C23.7635 10.4166 22.5552 10.7831 21.5274 11.4699C20.4996 12.1567 19.6985 13.1328 19.2254 14.2748C18.7524 15.4169 18.6286 16.6735 18.8698 17.8859C19.1109 19.0983 19.7062 20.2119 20.5803 21.086C21.4543 21.9601 22.568 22.5553 23.7804 22.7965C24.9927 23.0377 26.2494 22.9139 27.3914 22.4408C28.5335 21.9678 29.5096 21.1667 30.1964 20.1389C30.8831 19.1111 31.2497 17.9027 31.2497 16.6666C31.2497 15.009 30.5912 13.4193 29.4191 12.2472C28.247 11.0751 26.6573 10.4166 24.9997 10.4166ZM24.9997 18.7499C24.5876 18.7499 24.1848 18.6277 23.8422 18.3988C23.4996 18.1699 23.2326 17.8445 23.0749 17.4638C22.9172 17.0832 22.876 16.6643 22.9564 16.2601C23.0368 15.856 23.2352 15.4848 23.5265 15.1934C23.8179 14.9021 24.1891 14.7037 24.5932 14.6233C24.9974 14.5429 25.4163 14.5842 25.7969 14.7418C26.1776 14.8995 26.503 15.1665 26.7319 15.5091C26.9608 15.8517 27.083 16.2545 27.083 16.6666C27.083 17.2191 26.8635 17.749 26.4728 18.1397C26.0821 18.5304 25.5522 18.7499 24.9997 18.7499ZM37.4997 14.5833C37.0876 14.5833 36.6848 14.7054 36.3422 14.9344C35.9996 15.1633 35.7326 15.4886 35.5749 15.8693C35.4172 16.25 35.376 16.6689 35.4564 17.073C35.5368 17.4771 35.7352 17.8484 36.0265 18.1397C36.3179 18.4311 36.6891 18.6295 37.0932 18.7099C37.4974 18.7903 37.9162 18.749 38.2969 18.5913C38.6776 18.4337 39.003 18.1666 39.2319 17.824C39.4608 17.4814 39.583 17.0786 39.583 16.6666C39.583 16.114 39.3635 15.5841 38.9728 15.1934C38.5821 14.8027 38.0522 14.5833 37.4997 14.5833Z" fill="#F58021"/>
</g>
</svg>
