<svg width="50" height="50" viewBox="0 0 50 50" fill="none" xmlns="http://www.w3.org/2000/svg">
<g id="Users / approve user">
<path id="Vector" d="M27.7087 25.4584C28.8203 24.4962 29.7119 23.3061 30.323 21.9689C30.9341 20.6317 31.2503 19.1786 31.2503 17.7084C31.2503 14.9457 30.1529 12.2962 28.1994 10.3427C26.2458 8.38922 23.5963 7.29175 20.8337 7.29175C18.071 7.29175 15.4215 8.38922 13.468 10.3427C11.5145 12.2962 10.417 14.9457 10.417 17.7084C10.417 19.1786 10.7332 20.6317 11.3443 21.9689C11.9554 23.3061 12.847 24.4962 13.9587 25.4584C11.0423 26.779 8.56796 28.9116 6.83153 31.6012C5.09511 34.2908 4.17006 37.4236 4.16699 40.6251C4.16699 41.1776 4.38649 41.7075 4.77719 42.0982C5.16789 42.4889 5.69779 42.7084 6.25033 42.7084C6.80286 42.7084 7.33276 42.4889 7.72346 42.0982C8.11417 41.7075 8.33366 41.1776 8.33366 40.6251C8.33366 37.3099 9.65062 34.1305 11.9948 31.7862C14.339 29.442 17.5185 28.1251 20.8337 28.1251C24.1489 28.1251 27.3283 29.442 29.6725 31.7862C32.0167 34.1305 33.3337 37.3099 33.3337 40.6251C33.3337 41.1776 33.5532 41.7075 33.9438 42.0982C34.3346 42.4889 34.8645 42.7084 35.417 42.7084C35.9695 42.7084 36.4994 42.4889 36.8901 42.0982C37.2808 41.7075 37.5003 41.1776 37.5003 40.6251C37.4973 37.4236 36.5722 34.2908 34.8358 31.6012C33.0994 28.9116 30.625 26.779 27.7087 25.4584ZM20.8337 23.9584C19.5975 23.9584 18.3892 23.5919 17.3613 22.9051C16.3335 22.2183 15.5325 21.2422 15.0594 20.1002C14.5864 18.9581 14.4626 17.7015 14.7038 16.4891C14.9449 15.2767 15.5402 14.1631 16.4142 13.289C17.2883 12.4149 18.402 11.8197 19.6143 11.5785C20.8267 11.3373 22.0834 11.4611 23.2254 11.9342C24.3675 12.4072 25.3436 13.2083 26.0303 14.2361C26.7171 15.2639 27.0837 16.4723 27.0837 17.7084C27.0837 19.366 26.4252 20.9557 25.2531 22.1278C24.081 23.2999 22.4913 23.9584 20.8337 23.9584ZM45.2295 19.0209C45.0358 18.8256 44.8054 18.6707 44.5515 18.5649C44.2977 18.4591 44.0253 18.4047 43.7503 18.4047C43.4753 18.4047 43.203 18.4591 42.9491 18.5649C42.6952 18.6707 42.4648 18.8256 42.2712 19.0209L38.1045 23.1876L36.8128 21.8751C36.6192 21.6798 36.3887 21.5248 36.1349 21.4191C35.881 21.3133 35.6087 21.2588 35.3337 21.2588C35.0586 21.2588 34.7863 21.3133 34.5325 21.4191C34.2786 21.5248 34.0482 21.6798 33.8545 21.8751C33.4665 22.2654 33.2487 22.7934 33.2487 23.3438C33.2487 23.8942 33.4665 24.4222 33.8545 24.8126L36.6462 27.6042C37.0365 27.9923 37.5645 28.2101 38.1149 28.2101C38.6653 28.2101 39.1933 27.9923 39.5837 27.6042L45.1462 22.0417C45.3565 21.8528 45.5262 21.6231 45.6449 21.3665C45.7636 21.1099 45.8288 20.8318 45.8366 20.5492C45.8444 20.2666 45.7946 19.9854 45.6902 19.7226C45.5859 19.4599 45.4291 19.2211 45.2295 19.0209Z" fill="#F58021"/>
</g>
</svg>
