<svg width="60" height="60" viewBox="0 0 60 60" fill="none" xmlns="http://www.w3.org/2000/svg">
<g id="Frame 5">
<g id="File and Folder / approve file">
<path id="Vector" d="M29.167 43.3333H19.167C18.725 43.3333 18.301 43.1578 17.9885 42.8452C17.6759 42.5326 17.5003 42.1087 17.5003 41.6667V18.3333C17.5003 17.8913 17.6759 17.4674 17.9885 17.1548C18.301 16.8423 18.725 16.6667 19.167 16.6667H27.5003V21.6667C27.5003 22.9928 28.0271 24.2645 28.9648 25.2022C29.9025 26.1399 31.1742 26.6667 32.5003 26.6667H37.5003V35C37.5003 35.442 37.6759 35.866 37.9885 36.1785C38.301 36.4911 38.725 36.6667 39.167 36.6667C39.609 36.6667 40.0329 36.4911 40.3455 36.1785C40.6581 35.866 40.8337 35.442 40.8337 35V25C40.8337 25 40.8337 25 40.8337 24.9C40.8163 24.7469 40.7828 24.5961 40.7337 24.45V24.3C40.6535 24.1286 40.5466 23.9711 40.417 23.8333L30.417 13.8333C30.2792 13.7037 30.1217 13.5968 29.9503 13.5167C29.8952 13.507 29.8388 13.507 29.7837 13.5167C29.6216 13.43 29.4474 13.3682 29.267 13.3333H19.167C17.8409 13.3333 16.5691 13.8601 15.6315 14.7978C14.6938 15.7355 14.167 17.0073 14.167 18.3333V41.6667C14.167 42.9928 14.6938 44.2645 15.6315 45.2022C16.5691 46.1399 17.8409 46.6667 19.167 46.6667H29.167C29.609 46.6667 30.0329 46.4911 30.3455 46.1785C30.6581 45.866 30.8337 45.442 30.8337 45C30.8337 44.558 30.6581 44.1341 30.3455 43.8215C30.0329 43.5089 29.609 43.3333 29.167 43.3333ZM30.8337 19.0167L35.1503 23.3333H32.5003C32.0583 23.3333 31.6344 23.1577 31.3218 22.8452C31.0093 22.5326 30.8337 22.1087 30.8337 21.6667V19.0167ZM22.5003 33.3333H32.5003C32.9424 33.3333 33.3663 33.1577 33.6788 32.8452C33.9914 32.5326 34.167 32.1087 34.167 31.6667C34.167 31.2246 33.9914 30.8007 33.6788 30.4882C33.3663 30.1756 32.9424 30 32.5003 30H22.5003C22.0583 30 21.6344 30.1756 21.3218 30.4882C21.0093 30.8007 20.8337 31.2246 20.8337 31.6667C20.8337 32.1087 21.0093 32.5326 21.3218 32.8452C21.6344 33.1577 22.0583 33.3333 22.5003 33.3333ZM29.167 36.6667H22.5003C22.0583 36.6667 21.6344 36.8423 21.3218 37.1548C21.0093 37.4674 20.8337 37.8913 20.8337 38.3333C20.8337 38.7754 21.0093 39.1993 21.3218 39.5119C21.6344 39.8244 22.0583 40 22.5003 40H29.167C29.609 40 30.0329 39.8244 30.3455 39.5119C30.6581 39.1993 30.8337 38.7754 30.8337 38.3333C30.8337 37.8913 30.6581 37.4674 30.3455 37.1548C30.0329 36.8423 29.609 36.6667 29.167 36.6667ZM22.5003 26.6667H24.167C24.609 26.6667 25.0329 26.4911 25.3455 26.1785C25.6581 25.866 25.8337 25.442 25.8337 25C25.8337 24.558 25.6581 24.1341 25.3455 23.8215C25.0329 23.5089 24.609 23.3333 24.167 23.3333H22.5003C22.0583 23.3333 21.6344 23.5089 21.3218 23.8215C21.0093 24.1341 20.8337 24.558 20.8337 25C20.8337 25.442 21.0093 25.866 21.3218 26.1785C21.6344 26.4911 22.0583 26.6667 22.5003 26.6667ZM45.3503 37.15C45.1954 36.9938 45.0111 36.8698 44.808 36.7852C44.6049 36.7006 44.387 36.657 44.167 36.657C43.947 36.657 43.7291 36.7006 43.526 36.7852C43.3229 36.8698 43.1386 36.9938 42.9837 37.15L37.5003 42.65L35.3503 40.4833C35.1949 40.3279 35.0104 40.2047 34.8074 40.1206C34.6044 40.0365 34.3868 39.9932 34.167 39.9932C33.9472 39.9932 33.7296 40.0365 33.5266 40.1206C33.3235 40.2047 33.1391 40.3279 32.9837 40.4833C32.8283 40.6387 32.705 40.8232 32.6209 41.0263C32.5368 41.2293 32.4935 41.4469 32.4935 41.6667C32.4935 41.8864 32.5368 42.1041 32.6209 42.3071C32.705 42.5101 32.8283 42.6946 32.9837 42.85L36.317 46.1833C36.4719 46.3396 36.6563 46.4636 36.8594 46.5482C37.0625 46.6328 37.2803 46.6763 37.5003 46.6763C37.7203 46.6763 37.9382 46.6328 38.1413 46.5482C38.3444 46.4636 38.5287 46.3396 38.6837 46.1833L45.3503 39.5167C45.5065 39.3617 45.6305 39.1774 45.7151 38.9743C45.7998 38.7712 45.8433 38.5534 45.8433 38.3333C45.8433 38.1133 45.7998 37.8955 45.7151 37.6924C45.6305 37.4893 45.5065 37.305 45.3503 37.15Z" fill="#F58021"/>
</g>
<rect x="0.5" y="0.5" width="59" height="59" rx="29.5" stroke="white" stroke-opacity="0.9"/>
</g>
</svg>
