<svg width="60" height="60" viewBox="0 0 60 60" fill="none" xmlns="http://www.w3.org/2000/svg">
<g id="Frame 5">
<g id="User Interface / Petrol Pump">
<path id="Vector" d="M44.233 20.4833L41.6663 17.9167L39.3163 15.5667C39.1609 15.4113 38.9765 15.288 38.7734 15.2039C38.5704 15.1198 38.3528 15.0765 38.133 15.0765C37.9132 15.0765 37.6956 15.1198 37.4926 15.2039C37.2896 15.288 37.1051 15.4113 36.9497 15.5667C36.7943 15.7221 36.671 15.9066 36.5869 16.1096C36.5028 16.3126 36.4595 16.5302 36.4595 16.75C36.4595 16.9698 36.5028 17.1874 36.5869 17.3904C36.671 17.5935 36.7943 17.7779 36.9497 17.9333L38.6163 19.6L37.233 23.75C36.9405 24.6317 36.8993 25.5775 37.1142 26.4812C37.3291 27.385 37.7916 28.211 38.4497 28.8667L43.3663 33.8667V41.6667C43.3663 42.1087 43.1907 42.5326 42.8782 42.8452C42.5656 43.1578 42.1417 43.3333 41.6997 43.3333C41.2576 43.3333 40.8337 43.1578 40.5212 42.8452C40.2086 42.5326 40.033 42.1087 40.033 41.6667V38.3333C40.033 37.0073 39.5062 35.7355 38.5685 34.7978C37.6309 33.8601 36.3591 33.3333 35.033 33.3333H33.333V18.3333C33.333 17.0073 32.8062 15.7355 31.8685 14.7978C30.9309 13.8601 29.6591 13.3333 28.333 13.3333H18.333C17.0069 13.3333 15.7352 13.8601 14.7975 14.7978C13.8598 15.7355 13.333 17.0073 13.333 18.3333V41.6667C13.333 42.9928 13.8598 44.2645 14.7975 45.2022C15.7352 46.1399 17.0069 46.6667 18.333 46.6667H28.333C29.6591 46.6667 30.9309 46.1399 31.8685 45.2022C32.8062 44.2645 33.333 42.9928 33.333 41.6667V36.6667H34.9997C35.4417 36.6667 35.8656 36.8423 36.1782 37.1548C36.4907 37.4674 36.6663 37.8913 36.6663 38.3333V41.6667C36.6663 42.9928 37.1931 44.2645 38.1308 45.2022C39.0685 46.1399 40.3403 46.6667 41.6663 46.6667C42.9924 46.6667 44.2642 46.1399 45.2019 45.2022C46.1396 44.2645 46.6663 42.9928 46.6663 41.6667V26.3833C46.6683 25.2883 46.4544 24.2035 46.0369 23.1912C45.6193 22.1788 45.0064 21.2587 44.233 20.4833ZM29.9997 41.6667C29.9997 42.1087 29.8241 42.5326 29.5115 42.8452C29.199 43.1578 28.775 43.3333 28.333 43.3333H18.333C17.891 43.3333 17.4671 43.1578 17.1545 42.8452C16.8419 42.5326 16.6663 42.1087 16.6663 41.6667V30H29.9997V41.6667ZM29.9997 26.6667H16.6663V18.3333C16.6663 17.8913 16.8419 17.4674 17.1545 17.1548C17.4671 16.8423 17.891 16.6667 18.333 16.6667H28.333C28.775 16.6667 29.199 16.8423 29.5115 17.1548C29.8241 17.4674 29.9997 17.8913 29.9997 18.3333V26.6667ZM43.333 29.0333L40.7663 26.4667C40.555 26.2511 40.4061 25.9822 40.3357 25.6887C40.2652 25.3952 40.2758 25.088 40.3663 24.8L41.2163 22.2333L41.8663 22.9C42.7921 23.8245 43.3187 25.0751 43.333 26.3833V29.0333Z" fill="#F58021"/>
</g>
<rect x="0.5" y="0.5" width="59" height="59" rx="29.5" stroke="white" stroke-opacity="0.9"/>
</g>
</svg>
