<svg width="60" height="60" viewBox="0 0 60 60" fill="none" xmlns="http://www.w3.org/2000/svg">
<g id="Frame 5">
<g id="User Interface / Process">
<path id="Vector" d="M21.6527 34.17C21.4338 34.1699 21.217 34.213 21.0148 34.2967C20.8126 34.3805 20.6288 34.5032 20.474 34.658C20.3193 34.8128 20.1965 34.9966 20.1128 35.1988C20.029 35.401 19.986 35.6178 19.986 35.8367V38.8071C17.8378 36.3777 16.6522 33.2464 16.6527 30.0033C16.6524 29.5132 16.6817 29.0235 16.7406 28.5369C16.7675 28.3193 16.7513 28.0985 16.6928 27.8872C16.6343 27.6758 16.5347 27.4781 16.3997 27.3054C16.2646 27.1326 16.0968 26.9882 15.9059 26.8805C15.7149 26.7727 15.5046 26.7037 15.2869 26.6773C15.0692 26.651 14.8485 26.6678 14.6373 26.727C14.4262 26.7861 14.2288 26.8863 14.0564 27.0219C13.8841 27.1574 13.7402 27.3256 13.633 27.5169C13.5258 27.7082 13.4573 27.9187 13.4316 28.1365C13.3562 28.7559 13.3186 29.3793 13.3193 30.0033C13.3216 33.9803 14.7509 37.8243 17.3475 40.8367H14.986C14.544 40.8367 14.1201 41.0123 13.8075 41.3248C13.4949 41.6374 13.3193 42.0613 13.3193 42.5033C13.3193 42.9454 13.4949 43.3693 13.8075 43.6818C14.1201 43.9944 14.544 44.17 14.986 44.17H21.6527C21.9133 44.1667 22.1695 44.1012 22.3997 43.9789C22.6299 43.8566 22.8276 43.6811 22.9762 43.467C22.9957 43.4413 23.0205 43.4223 23.0386 43.3953C23.0497 43.3787 23.05 43.3591 23.0603 43.3422C23.1398 43.208 23.1993 43.063 23.237 42.9117C23.2617 42.8267 23.2792 42.7398 23.2894 42.6519C23.2942 42.6004 23.3194 42.5561 23.3194 42.5034V35.8367C23.3195 35.6178 23.2764 35.4011 23.1927 35.1988C23.1089 34.9966 22.9861 34.8128 22.8314 34.658C22.6766 34.5032 22.4928 34.3805 22.2906 34.2967C22.0883 34.213 21.8716 34.1699 21.6527 34.17ZM24.1527 20.0033H21.1819C23.6116 17.8552 26.7429 16.6696 29.986 16.67C30.4759 16.6688 30.9654 16.6982 31.4517 16.7579C31.669 16.7843 31.8895 16.7676 32.1004 16.7088C32.3113 16.65 32.5086 16.5503 32.681 16.4152C32.8534 16.2802 32.9974 16.1125 33.105 15.9218C33.2126 15.731 33.2815 15.521 33.3079 15.3036C33.3343 15.0863 33.3177 14.8658 33.2589 14.6549C33.2001 14.444 33.1003 14.2467 32.9653 14.0743C32.8302 13.9019 32.6625 13.7578 32.4718 13.6503C32.2811 13.5427 32.0711 13.4737 31.8537 13.4473C31.2339 13.3726 30.6102 13.3356 29.986 13.3367C26.0091 13.3388 22.165 14.768 19.1527 17.3645V15.0033C19.1527 14.5613 18.9771 14.1374 18.6645 13.8248C18.352 13.5123 17.928 13.3367 17.486 13.3367C17.044 13.3367 16.6201 13.5123 16.3075 13.8248C15.9949 14.1374 15.8193 14.5613 15.8193 15.0033V21.67C15.8298 21.7802 15.8518 21.8889 15.8849 21.9945L15.8853 21.9965C15.9257 22.2016 16.0056 22.3969 16.1205 22.5715L16.1396 22.5997C16.2497 22.7599 16.3877 22.899 16.5471 23.0103C16.5653 23.0236 16.5743 23.044 16.5933 23.0568C16.6171 23.0725 16.644 23.0775 16.6683 23.092C16.7629 23.1488 16.863 23.1957 16.9672 23.232C17.108 23.2809 17.2548 23.3106 17.4036 23.32C17.4325 23.3216 17.4568 23.3367 17.486 23.3367H24.1527C24.5947 23.3367 25.0186 23.1611 25.3312 22.8486C25.6438 22.536 25.8193 22.1121 25.8193 21.67C25.8193 21.228 25.6438 20.8041 25.3312 20.4915C25.0186 20.179 24.5947 20.0034 24.1527 20.0034V20.0033ZM44.0868 38.0101C44.0463 37.805 43.9664 37.6096 43.8514 37.435L43.8325 37.407C43.7223 37.2467 43.5842 37.1076 43.4247 36.9962C43.4065 36.983 43.3976 36.9625 43.3787 36.9499C43.3607 36.938 43.3394 36.9376 43.3211 36.9264C43.1097 36.8088 42.878 36.7323 42.6382 36.7006C42.5855 36.6956 42.54 36.6699 42.486 36.6699H35.8193C35.3773 36.6699 34.9534 36.8455 34.6408 37.1581C34.3283 37.4706 34.1527 37.8945 34.1527 38.3366C34.1527 38.7786 34.3283 39.2025 34.6408 39.5151C34.9534 39.8276 35.3773 40.0032 35.8193 40.0032H38.79C36.3604 42.1514 33.2291 43.337 29.986 43.3366C29.4961 43.3372 29.0066 43.3073 28.5203 43.2471C28.0813 43.1937 27.6391 43.317 27.291 43.5897C26.9429 43.8625 26.7174 44.2623 26.6641 44.7013C26.6108 45.1403 26.734 45.5825 27.0067 45.9307C27.2795 46.2788 27.6793 46.5043 28.1183 46.5576C28.7381 46.6324 29.3618 46.6699 29.986 46.6699C33.9629 46.6677 37.807 45.2385 40.8193 42.6421V45.0033C40.8193 45.4454 40.9949 45.8693 41.3075 46.1818C41.6201 46.4944 42.044 46.67 42.486 46.67C42.928 46.67 43.352 46.4944 43.6645 46.1818C43.9771 45.8693 44.1527 45.4454 44.1527 45.0033V38.3367C44.1422 38.2265 44.1202 38.1178 44.0872 38.0122L44.0868 38.0101ZM44.986 19.17C45.428 19.17 45.852 18.9944 46.1645 18.6818C46.4771 18.3693 46.6527 17.9454 46.6527 17.5033C46.6527 17.0613 46.4771 16.6374 46.1645 16.3248C45.852 16.0123 45.428 15.8367 44.986 15.8367H38.3193C38.2108 15.8471 38.1037 15.8687 37.9996 15.9012L37.9885 15.9034C37.7861 15.9439 37.5934 16.0228 37.4207 16.1359L37.388 16.158C37.2286 16.268 37.0902 16.4056 36.9792 16.5643C36.9661 16.5823 36.9459 16.5912 36.9334 16.6098C36.9215 16.6277 36.9211 16.6488 36.9099 16.667C36.791 16.8797 36.7139 17.1132 36.6827 17.3548C36.6779 17.4063 36.6527 17.4506 36.6527 17.5033V24.17C36.6527 24.612 36.8283 25.0359 37.1408 25.3485C37.4534 25.6611 37.8773 25.8367 38.3193 25.8367C38.7614 25.8367 39.1853 25.6611 39.4979 25.3485C39.8104 25.0359 39.986 24.612 39.986 24.17V21.1985C42.1341 23.6285 43.3196 26.76 43.3193 30.0032C43.3197 30.4934 43.2903 30.9831 43.2314 31.4697C43.1786 31.9084 43.302 32.3502 43.5745 32.698C43.847 33.0459 44.2463 33.2714 44.6849 33.3252C44.7524 33.333 44.8204 33.3368 44.8884 33.3366C45.2953 33.3361 45.688 33.1866 45.9923 32.9165C46.2967 32.6463 46.4916 32.2741 46.5404 31.8701C46.6159 31.2507 46.6534 30.6273 46.6527 30.0033C46.6504 26.0264 45.221 22.1823 42.6243 19.17H44.986Z" fill="#F58021"/>
</g>
<rect x="0.5" y="0.5" width="59" height="59" rx="29.5" stroke="white" stroke-opacity="0.9"/>
</g>
</svg>
